<?xml version="1.0" encoding="utf-8"?>
<!-- Generator: Adobe Illustrator 27.1.1, SVG Export Plug-In . SVG Version: 6.00 Build 0)  -->
<svg version="1.1" id="Layer_1" xmlns="http://www.w3.org/2000/svg" xmlns:xlink="http://www.w3.org/1999/xlink" x="0px" y="0px"
	 viewBox="0 0 408.8 283.3" style="enable-background:new 0 0 408.8 283.3;" xml:space="preserve">
<g>
	<path d="M0,112.9c3.4-7.5,9.4-9.7,17.3-9.6c34.6,0.3,69.1,0.1,103.7,0.1c7.3,0,12.1,3.1,14,9c2.5,7.7-2.6,15.7-10.7,16.6
		c-1.6,0.2-3.2,0.2-4.8,0.2c-34.4,0-68.8-0.1-103.3,0.1c-7.9,0.1-13.3-2.6-16.2-10C0,117.2,0,115.1,0,112.9z"/>
	<path d="M277,25.8c15.5,0,30.4,0,45.3,0c17.6,0,17.6,0,25.5,15.7c9.7,19.3,19.3,38.8,29.3,58c3.5,6.7,7.7,13,12.1,19.2
		c4.9,6.9,10.3,13.5,15.6,20.2c2.8,3.5,4.1,7.3,4.1,11.8c-0.1,26.6,0,53.2,0,79.8c0,9.5-5,14.6-14.5,14.7c-10.8,0.1-21.6,0.1-32.3,0
		c-2.5,0-3.6,0.6-4.5,3.1c-7.7,21.5-26.8,35.1-48.8,35c-22.1-0.1-40.9-13.6-48.5-34.9c-0.8-2.3-1.8-3.3-4.4-3.3
		c-23.3,0.1-46.6,0.1-69.9,0c-2.6,0-3.6,0.9-4.5,3.3c-7.7,21.4-26.3,34.7-48.5,34.9c-22.1,0.1-41.1-13.4-48.9-35
		c-0.9-2.5-2-3.2-4.5-3.2c-9.6,0.1-19.2,0.1-28.7,0c-8.1-0.1-13.6-4.8-14.1-11.8c-0.6-8.1,4.9-13.9,13.8-14c9.2-0.2,18.4,0,27.5,0
		c1.5,0,2.9,0,4.5,0c1-2.6,1.8-5.1,2.8-7.5c8.1-19.3,27.9-32.2,48.2-31.5c22.2,0.8,40.7,13.9,47.7,34.4c1.3,3.8,2.9,4.7,6.7,4.7
		c22.2-0.2,44.4-0.1,66.7,0c3.1,0,4.6-0.7,5.6-3.9c7.2-21.3,26.6-35.2,48.7-35.2c22.1,0,41.8,14.1,48.9,35.5c0.9,2.8,2.2,3.6,5,3.5
		c6.6-0.2,13.3-0.1,20.5-0.1c0-1.6,0-2.9,0-4.2c0-19.6,0.1-39.1-0.1-58.7c0-2.1-0.9-4.4-2.1-6.1c-4.6-6.3-9.6-12.4-14.3-18.7
		c-1.6-2.1-3.3-3-5.9-2.9c-31.1,0.1-62.3,0.1-93.4,0.1c-11.4,0-16-4.6-16-15.9c0-27.3,0-54.6,0-81.8c0-1.6,0-3.1,0-5.3
		c-2,0-3.7,0-5.4,0c-64.4,0-128.8,0-193.2,0c-2.4,0-4.8-0.1-7.1-0.7c-5.9-1.6-9.4-7.1-8.9-13.4c0.4-5.9,5-10.6,11-11.4
		C49.4,0,51.1,0,52.8,0C122,0,191.2,0,260.4,0C272.6,0,277,4.4,277,16.5C277,19.5,277,22.4,277,25.8z M349.8,102.9
		c-8.5-16.9-16.7-33.3-25.1-49.6c-0.5-1-2.5-1.7-3.9-1.7c-13.6-0.1-27.1-0.1-40.7-0.1c-1,0-2,0.2-3,0.3c0,17.2,0,34,0,51.1
		C301.3,102.9,325.2,102.9,349.8,102.9z M308.6,206.2c-14.1,0.1-25.6,11.6-25.6,25.7c0,14.1,11.6,25.6,25.6,25.7
		c14.2,0,26-11.8,25.8-25.9C334.3,217.5,322.8,206.2,308.6,206.2z M158.3,232.4c0.4-14.1-10.9-25.8-25.1-26.1
		c-14.2-0.3-25.9,10.8-26.3,24.9c-0.4,14.1,10.8,25.9,24.9,26.3C146.3,257.9,158,246.8,158.3,232.4z"/>
	<path d="M88.6,52.9c18.2,0,36.4-0.1,54.7,0c7.5,0,12.8,4.9,13.3,11.6c0.6,7.6-4.8,13.7-12.5,14c-6.2,0.2-12.5,0.1-18.8,0.1
		c-29.9,0-59.9,0-89.8,0c-7.4,0-12.6-3.7-14-10c-1.9-8.2,3.8-15.5,12.5-15.7c12-0.2,23.9-0.1,35.9-0.1
		C76.1,52.9,82.4,52.9,88.6,52.9z"/>
	<path d="M63.5,154.3c10.1,0,20.2-0.3,30.3,0.1c8.9,0.3,14.4,8.8,11.4,17c-2,5.4-6.2,8.5-11.9,8.5c-19.8,0.2-39.6,0.2-59.5,0
		c-7.5-0.1-13-6.1-12.9-13.1c0.1-7,5.4-12.4,12.9-12.5C43.8,154.1,53.6,154.2,63.5,154.3C63.5,154.2,63.5,154.3,63.5,154.3z"/>
</g>
</svg>
